<svg xmlns="http://www.w3.org/2000/svg" viewBox="0 0 48 48">
  <title>External Link</title>
  <path fill="#FFC800" d="M36,20.07V43H5V12H27.93l5-5H3a3,3,0,0,0-3,3V45a3,3,0,0,0,3,3H38a3,3,0,0,0,3-3V15.07Z"/>
  <path fill="#FFC800" d="M48,2a1.41,1.41,0,0,0-.06-.22c0-.08,0-.17-.08-.25l-.13-.24c0-.06-.06-.13-.1-.19a2.52,2.52,0,0,0-.69-.69l-.18-.1L46.46.19,46.21.12A.81.81,0,0,0,46,.05a2.72,2.72,0,0,0-.49,0h-12a2.5,2.5,0,0,0,0,5h6L15.73,28.73a2.52,2.52,0,0,0,0,3.54,2.51,2.51,0,0,0,3.54,0L43,8.54v6a2.5,2.5,0,0,0,5,0V2.5A2.72,2.72,0,0,0,48,2Z"/>
</svg>
